<?xml version="1.0" encoding="utf-8"?>
<!-- Generator: Adobe Illustrator 20.0.0, SVG Export Plug-In . SVG Version: 6.00 Build 0)  -->
<svg version="1.1" xmlns="http://www.w3.org/2000/svg" xmlns:xlink="http://www.w3.org/1999/xlink" x="0px" y="0px"
	 viewBox="0 0 1000 1000" style="enable-background:new 0 0 1000 1000;" xml:space="preserve">
<style type="text/css">
	.st0{fill:#FDFFF6;stroke:#231F20;stroke-miterlimit:10;}
	.st1{fill:#011627;}
</style>
<g id="BG">
	<rect class="st0" width="1000" height="1000"/>
</g>
<g id="Layer_2">
	<path class="st1" d="M279.1,862.8l80.7,64.6c11.9,9.5,27.9,11.9,42.1,6.3L682.7,823c15.4-6.1,25.9-20.6,26.8-37.2l27.2-493.7
		c1.7-31.3-29.9-53.6-58.8-41.5L433.9,352.8c-12.6,5.3-27,4.2-38.6-3l-67.4-41.5c-28.3-17.4-64.7,2.9-64.7,36.2v485.2
		C263.2,842.6,269,854.8,279.1,862.8z"/>
	<path class="st1" d="M440.5,298.3c0,0,0.5-141,6.6-216.7c5.6-68.1,120,74.2,142.8,103.3c2.9,3.6,3.4,8.6,1.3,12.7
		c-2.9,5.6-8.9,12.7-21,14.7c-4.2,0.7-8.4-0.8-11.2-4.1L503.6,143c-7-8.2-20.5-3.7-21.1,7.1l-7.7,133.9
		C474.8,283.9,471.1,326.5,440.5,298.3z"/>
</g>
</svg>
